<svg width="37" height="52" viewBox="0 0 37 52" fill="none" xmlns="http://www.w3.org/2000/svg">
<path d="M18.4401 23.3877C18.1953 23.3633 17.9015 23.3633 17.6322 23.3877C14.8222 23.2923 12.1597 22.107 10.2085 20.0826C8.25726 18.0583 7.17057 15.354 7.17855 12.5424C7.17855 6.54434 12.0259 1.67248 18.0484 1.67248C19.4743 1.64676 20.8912 1.90213 22.2184 2.42402C23.5455 2.9459 24.7569 3.72408 25.7833 4.71412C26.8097 5.70416 27.6311 6.88667 28.2005 8.19413C28.7699 9.5016 29.0762 10.9084 29.1019 12.3343C29.1276 13.7601 28.8723 15.1771 28.3504 16.5042C27.8285 17.8314 27.0503 19.0427 26.0603 20.0691C25.0702 21.0955 23.8877 21.9169 22.5803 22.4863C21.2728 23.0557 19.866 23.362 18.4401 23.3877V23.3877ZM6.19929 32.4215C0.274717 36.3875 0.274717 42.8507 6.19929 46.7922C12.9318 51.2969 23.973 51.2969 30.7055 46.7922C36.63 42.8262 36.63 36.363 30.7055 32.4215C23.9975 27.9413 12.9562 27.9413 6.19929 32.4215V32.4215Z" stroke="#ECED76" stroke-width="3" stroke-linecap="round" stroke-linejoin="round"/>
</svg>
