<svg width="23" height="23" viewBox="0 0 23 23" fill="none" xmlns="http://www.w3.org/2000/svg">
<path d="M0.959199 4.55278H3.58094C4.09839 6.45665 6.06123 7.58057 7.9651 7.06313C9.18789 6.73078 10.1431 5.77557 10.4754 4.55278H22.0404C22.5696 4.55278 22.9986 4.12378 22.9986 3.59456C22.9986 3.06534 22.5696 2.63634 22.0404 2.63634H10.4754C9.958 0.732422 7.99515 -0.391501 6.09128 0.125948C4.8685 0.458292 3.91328 1.41351 3.58094 2.63629H0.959199C0.429983 2.63629 0.000976562 3.0653 0.000976562 3.59451C0.000976562 4.12373 0.429983 4.55278 0.959199 4.55278Z" fill="#6C6C6C"/>
<path d="M22.0404 10.5415H19.4187C18.9023 8.63793 16.9405 7.51338 15.0369 8.02975C13.8131 8.36174 12.8571 9.31771 12.5251 10.5415H0.959199C0.429983 10.5415 0.000976562 10.9705 0.000976562 11.4998C0.000976562 12.029 0.429983 12.458 0.959199 12.458H12.5251C13.0415 14.3616 15.0033 15.4861 16.9069 14.9698C18.1307 14.6378 19.0867 13.6818 19.4187 12.458H22.0404C22.5696 12.458 22.9986 12.029 22.9986 11.4998C22.9986 10.9705 22.5696 10.5415 22.0404 10.5415Z" fill="#6C6C6C"/>
<path d="M22.0404 18.4473H10.4754C9.958 16.5435 7.99515 15.4195 6.09128 15.937C4.8685 16.2693 3.91328 17.2245 3.58094 18.4473H0.959199C0.429983 18.4473 0.000976562 18.8763 0.000976562 19.4056C0.000976562 19.9348 0.429983 20.3638 0.959199 20.3638H3.58094C4.09839 22.2676 6.06123 23.3916 7.9651 22.8741C9.18789 22.5418 10.1431 21.5866 10.4754 20.3638H22.0404C22.5696 20.3638 22.9986 19.9348 22.9986 19.4056C22.9986 18.8763 22.5696 18.4473 22.0404 18.4473Z" fill="#6C6C6C"/>
</svg>
