<svg width="30" height="30" viewBox="0 0 30 30" fill="none" xmlns="http://www.w3.org/2000/svg">
<g clip-path="url(#clip0_2_230)">
<path d="M2.95853 26.25V3.75C2.95853 3.41848 3.11438 3.10054 3.3918 2.86612C3.66921 2.6317 4.04547 2.5 4.4378 2.5H11.8341V0H4.4378C3.26082 0 2.13205 0.395088 1.2998 1.09835C0.467552 1.80161 0 2.75544 0 3.75L0 26.25C0 27.2446 0.467552 28.1984 1.2998 28.9017C2.13205 29.6049 3.26082 30 4.4378 30H11.8341V27.5H4.4378C4.04547 27.5 3.66921 27.3683 3.3918 27.1339C3.11438 26.8995 2.95853 26.5815 2.95853 26.25Z" fill="#6C6C6C"/>
<path d="M28.702 12.3488L21.9181 6.61627L19.8264 8.38377L26.134 13.7138L1.89331 13.75V16.25L26.2169 16.2138L19.8235 21.6163L21.9152 23.3838L28.6991 17.6513C29.5314 16.9484 29.9993 15.9949 29.9999 15.0005C30.0004 14.0062 29.5336 13.0523 28.702 12.3488Z" fill="#6C6C6C"/>
</g>
<defs>
<clipPath id="clip0_2_230">
<rect width="30" height="30" fill="white"/>
</clipPath>
</defs>
</svg>
