<svg width="34" height="43" viewBox="0 0 34 43" fill="none" xmlns="http://www.w3.org/2000/svg">
<path d="M33.878 7.35485L27.1873 0H13.8758C12.5496 0 11.2777 0.560832 10.3399 1.55912C9.40212 2.55741 8.87527 3.91138 8.87527 5.32317V7.09756H5.54157C4.21534 7.09756 2.94343 7.65839 2.00564 8.65668C1.06786 9.65497 0.541016 11.0089 0.541016 12.4207V42.5854H27.2106V33.7134H33.878V7.35485ZM23.8769 39.0366H3.87472V12.4207C3.87472 11.9501 4.05033 11.4988 4.36293 11.166C4.67552 10.8333 5.09949 10.6463 5.54157 10.6463H8.87527V33.7134H23.8769V39.0366ZM12.209 30.1646V5.32317C12.209 4.85257 12.3846 4.40125 12.6972 4.06849C13.0098 3.73572 13.4338 3.54878 13.8758 3.54878H23.8769V10.6463H30.5443V30.1646H12.209Z" fill="#ECED76"/>
</svg>
