<svg width="52" height="49" viewBox="0 0 52 49" fill="none" xmlns="http://www.w3.org/2000/svg">
<path d="M25.9037 31.9612C27.8202 31.9612 29.6582 31.1999 31.0133 29.8448C32.3684 28.4897 33.1298 26.6517 33.1298 24.7352C33.1298 22.8188 32.3684 20.9808 31.0133 19.6257C29.6582 18.2705 27.8202 17.5092 25.9037 17.5092C23.9873 17.5092 22.1493 18.2705 20.7942 19.6257C19.439 20.9808 18.6777 22.8188 18.6777 24.7352C18.6777 26.6517 19.439 28.4897 20.7942 29.8448C22.1493 31.1999 23.9873 31.9612 25.9037 31.9612V31.9612Z" stroke="#ECED76" stroke-width="3" stroke-miterlimit="10" stroke-linecap="round" stroke-linejoin="round"/>
<path d="M1.81689 26.8548V22.6156C1.81689 20.1106 3.86426 18.0391 6.39337 18.0391C10.7531 18.0391 12.5355 14.956 10.3436 11.1744C9.09108 9.00659 9.83777 6.18844 12.0297 4.93593L16.1967 2.55135C18.0995 1.41927 20.5564 2.0937 21.6884 3.99655L21.9534 4.4542C24.1212 8.23581 27.686 8.23581 29.8779 4.4542L30.1429 3.99655C31.2749 2.0937 33.7318 1.41927 35.6346 2.55135L39.8016 4.93593C41.9935 6.18844 42.7402 9.00659 41.4877 11.1744C39.2958 14.956 41.0782 18.0391 45.4379 18.0391C47.9429 18.0391 50.0144 20.0865 50.0144 22.6156V26.8548C50.0144 29.3599 47.967 31.4313 45.4379 31.4313C41.0782 31.4313 39.2958 34.5144 41.4877 38.296C42.7402 40.4879 41.9935 43.282 39.8016 44.5345L35.6346 46.9191C33.7318 48.0511 31.2749 47.3767 30.1429 45.4739L29.8779 45.0162C27.7101 41.2346 24.1453 41.2346 21.9534 45.0162L21.6884 45.4739C20.5564 47.3767 18.0995 48.0511 16.1967 46.9191L12.0297 44.5345C10.9797 43.9299 10.2125 42.9335 9.89641 41.764C9.5803 40.5944 9.74113 39.3472 10.3436 38.296C12.5355 34.5144 10.7531 31.4313 6.39337 31.4313C3.86426 31.4313 1.81689 29.3599 1.81689 26.8548V26.8548Z" stroke="#ECED76" stroke-width="3" stroke-miterlimit="10" stroke-linecap="round" stroke-linejoin="round"/>
</svg>
